<?xml version="1.0" encoding="UTF-8" standalone="no"?>
<!-- Created with Inkscape (http://www.inkscape.org/) -->

<svg
   width="1920"
   height="1080"
   viewBox="0 0 1920 1080"
   version="1.1"
   id="svg5"
   xml:space="preserve"
   inkscape:export-filename="VagasPinhalVetorizado.png"
   inkscape:export-xdpi="500"
   inkscape:export-ydpi="500"
   inkscape:version="1.2.2 (732a01da63, 2022-12-09)"
   sodipodi:docname="VagasPinhal.svg"
   xmlns:inkscape="http://www.inkscape.org/namespaces/inkscape"
   xmlns:sodipodi="http://sodipodi.sourceforge.net/DTD/sodipodi-0.dtd"
   xmlns="http://www.w3.org/2000/svg"
   xmlns:svg="http://www.w3.org/2000/svg"><sodipodi:namedview
     id="namedview7"
     pagecolor="#505050"
     bordercolor="#eeeeee"
     borderopacity="1"
     inkscape:showpageshadow="0"
     inkscape:pageopacity="0"
     inkscape:pagecheckerboard="0"
     inkscape:deskcolor="#505050"
     inkscape:document-units="px"
     showgrid="false"
     inkscape:zoom="0.25"
     inkscape:cx="730"
     inkscape:cy="716"
     inkscape:window-width="1366"
     inkscape:window-height="705"
     inkscape:window-x="-8"
     inkscape:window-y="-8"
     inkscape:window-maximized="1"
     inkscape:current-layer="layer3" /><defs
     id="defs2"><inkscape:path-effect
       effect="bspline"
       id="path-effect11272"
       is_visible="true"
       lpeversion="1"
       weight="33.333333"
       steps="2"
       helper_size="0"
       apply_no_weight="true"
       apply_with_weight="true"
       only_selected="false" /><inkscape:path-effect
       effect="bspline"
       id="path-effect11254"
       is_visible="true"
       lpeversion="1"
       weight="33.333333"
       steps="2"
       helper_size="0"
       apply_no_weight="true"
       apply_with_weight="true"
       only_selected="false" /><inkscape:path-effect
       effect="bspline"
       id="path-effect11248"
       is_visible="true"
       lpeversion="1"
       weight="33.333333"
       steps="2"
       helper_size="0"
       apply_no_weight="true"
       apply_with_weight="true"
       only_selected="false" /><inkscape:path-effect
       effect="bspline"
       id="path-effect7176"
       is_visible="true"
       lpeversion="1"
       weight="33.333333"
       steps="2"
       helper_size="0"
       apply_no_weight="true"
       apply_with_weight="true"
       only_selected="false" /><inkscape:path-effect
       effect="bspline"
       id="path-effect7121"
       is_visible="true"
       lpeversion="1"
       weight="33.333333"
       steps="2"
       helper_size="0"
       apply_no_weight="true"
       apply_with_weight="true"
       only_selected="false" /></defs><g
     inkscape:groupmode="layer"
     id="layer3"
     inkscape:label="Camada 2"
     style="fill:#181d2e;fill-opacity:1;opacity:1"><rect
       style="opacity:1;fill:#181d2e;fill-opacity:1;stroke:none;stroke-opacity:1"
       id="rect14986"
       width="2373.9392"
       height="1326.6132"
       x="-174.55437"
       y="-145.46196"
       ry="65.094231" /></g><g
     inkscape:label="Camada 1"
     inkscape:groupmode="layer"
     id="layer1"
     style="display:inline"><g
       id="g11292"
       style="opacity:1;fill:#ffffff;fill-opacity:1;stroke:none;stroke-opacity:1"><path
         style="opacity:1;fill:#ffffff;fill-opacity:1;stroke:none;stroke-opacity:1"
         d="m 322.45714,361.28571 39.08572,-0.51428 73.54285,185.14286 69.94286,-185.14286 36.25715,0.25714 L 448.77857,587.50714 418.5,587.25 Z"
         id="path6777" /><path
         style="opacity:1;fill:#ffffff;fill-opacity:1;stroke:none;stroke-opacity:1"
         d="m 720.21853,557.14967 c 4.90937,-5.48516 11.09151,28.6984 11.09151,28.6984 0,0 29.8197,-0.72731 29.8197,-0.72731 0,0 -0.72731,-226.55701 -0.72731,-226.55701 0,0 -29.8197,-0.36366 -29.8197,-0.36366 0,0 -1.09097,37.82011 -1.09097,37.82011 -6.78822,-11.2733 -13.57574,-22.54543 -37.38622,-30.21826 -23.81048,-7.67283 -64.64113,-11.74388 -96.32629,6.90775 -31.68516,18.65162 -54.21972,60.02343 -54.17213,101.24499 0.0476,41.22156 22.67648,82.28709 52.11852,100.69818 29.44203,18.41109 65.69348,14.16683 88.72926,6.55941 23.03579,-7.60741 32.85427,-18.57744 37.76363,-24.0626 z"
         id="path7119"
         inkscape:path-effect="#path-effect7121"
         inkscape:original-d="m 725.1279,551.66451 6.18214,34.18356 29.8197,-0.72731 -0.72731,-226.55701 -29.8197,-0.36366 -1.09097,37.82011 c 0,0 -13.57545,-22.5456 -20.36467,-33.8199 -40.83212,-4.0703 -81.66277,-8.14135 -122.49689,-12.21364 -22.53492,41.3753 -45.06948,82.74711 -67.60639,124.12041 22.63124,41.06898 45.26014,82.13451 67.88938,123.20149 36.25461,-4.24352 72.50606,-8.48777 108.75867,-12.73328 9.81988,-10.96948 19.63836,-21.93951 29.45604,-32.91077 z"
         sodipodi:nodetypes="cccccccccccc" /><path
         style="opacity:1;fill:#ffffff;fill-opacity:1;stroke:none;stroke-opacity:1"
         d="m 958.41253,392.74731 c 72.57977,84.82354 1.42393,163.05102 -68.1911,166.31337 C 812.16302,562.71871 744.31197,451.44235 835.71429,372.85715 871.6577,341.95399 986.4,359.84336 986.4,356.4 l 0.51429,25.2 z"
         id="path7182"
         sodipodi:nodetypes="cssccc" /><path
         style="display:inline;opacity:1;fill:#ffffff;fill-opacity:1;stroke:none;stroke-opacity:1"
         d="m 1190.0607,557.51332 c 4.9094,-5.48516 11.0915,28.6984 11.0915,28.6984 0,0 29.8197,-0.72731 29.8197,-0.72731 0,0 -0.7273,-226.55701 -0.7273,-226.55701 0,0 -29.8197,-0.36366 -29.8197,-0.36366 0,0 -1.091,37.82011 -1.091,37.82011 -6.7882,-11.2733 -13.5757,-22.54542 -37.3862,-30.21826 -23.8105,-7.67283 -64.6411,-11.74388 -96.3263,6.90776 -31.6851,18.65164 -54.2197,60.02342 -54.1721,101.24497 0.048,41.22156 22.6765,82.28708 52.1185,100.69818 29.4421,18.4111 65.6935,14.16684 88.7293,6.55942 23.0357,-7.60741 32.8542,-18.57744 37.7636,-24.0626 z"
         id="path7172"
         inkscape:path-effect="#path-effect7176"
         inkscape:original-d="m 1194.9701,552.02816 6.1821,34.18356 29.8197,-0.72731 -0.7273,-226.55701 -29.8197,-0.36366 -1.091,37.82011 c 0,0 -13.5754,-22.5456 -20.3646,-33.8199 -40.8322,-4.0703 -81.6628,-8.14135 -122.4969,-12.21364 -22.535,41.3753 -45.0695,82.74711 -67.60644,124.12041 22.63124,41.06898 45.26014,82.13451 67.88944,123.20149 36.2546,-4.24352 72.506,-8.48777 108.7586,-12.73328 9.8199,-10.96948 19.6384,-21.93951 29.4561,-32.91077 z"
         sodipodi:nodetypes="cccccccccccc"
         inkscape:label="path7172" /><path
         style="opacity:1;fill:#ffffff;fill-opacity:1;stroke:none;stroke-opacity:1"
         d="m 1410.1714,370.02857 2.5715,38.05714 c -22.1965,-18.57824 -100.8463,-33.3936 -109.2858,6.42857 -2.8148,13.28158 12.4393,26.84111 40.6937,33.47173 22.3258,5.23933 40.4802,11.11177 53.371,19.63375 24.8351,16.41824 30.9504,37.92918 27.9873,55.13607 -9.949,57.77404 -44.8542,63.16606 -79.7143,65.31429 -31.3011,1.92891 -56.9616,-8.47491 -76.6286,-20.05715 l 0.5143,-41.65714 c 22.2996,19.7291 47.3174,27.02861 73.1195,26.50131 58.5038,-1.21513 58.5996,-38.01384 32.5998,-55.67108 -11.8717,-8.06242 -24.3265,-8.50777 -38.7712,-11.70035 -37.988,-8.39616 -70.1583,-26.31702 -67.8857,-67.37142 2.184,-39.45473 29.7866,-60.32211 69.4285,-61.71429 25.4675,-0.89439 50.806,2.22661 72,13.62857 z"
         id="path7273"
         sodipodi:nodetypes="ccssssscccssssc"
         inkscape:label="path7273" /><path
         style="opacity:1;fill:#ffffff;fill-opacity:1;stroke:none;stroke-opacity:1"
         d="m 834.87857,615.92143 88.17983,1.33898 c 34.36045,18.60937 13.7101,64.56778 -13.41554,60.18245 l -0.12858,36.96429 c 20.82933,-2.00358 58.8649,-3.74484 67.88572,-59.65714 5.73795,-35.56461 -15.03997,-59.38665 -39.85714,-69.42858 -35.07075,-6.23265 -69.10616,-3.85268 -102.92143,-4.43571 z"
         id="path9454"
         sodipodi:nodetypes="ccccsccc" /><path
         style="opacity:1;fill:#ffffff;fill-opacity:1;stroke:none;stroke-opacity:1"
         d="m 995.82582,702.20756 51.50038,-0.35357 c 28.6337,13.66713 37.345,43.66747 20.2657,67.33599 -5.2562,7.28417 -13.1467,13.44398 -23.9023,16.30464 l -34.0348,-0.0643 -0.1809,49.62598 -13.61405,0.0441 z"
         id="path9458"
         sodipodi:nodetypes="ccsccccc" /><path
         style="opacity:1;fill:#181d2e;fill-opacity:1;stroke:none;stroke-opacity:1"
         d="m 1010.0515,717.49115 -0.1818,51.82083 32.0016,0.36365 c 21.2411,-14.56543 20.2217,-41.21472 -1.2728,-51.82082 z"
         id="path9460"
         sodipodi:nodetypes="ccccc" /><path
         style="opacity:1;fill:#ffffff;fill-opacity:1;stroke:none;stroke-opacity:1"
         d="m 1094.9195,735.0375 18.5464,0.0454 -0.091,100.27785 h -18.501 z"
         id="path9516"
         sodipodi:nodetypes="ccccc" /><path
         style="opacity:1;fill:#ffffff;fill-opacity:1;stroke:none;stroke-opacity:1"
         d="m 1094.965,701.89945 18.6827,-0.0454 -0.045,17.77363 -18.7282,0.0455 z"
         id="path9518"
         sodipodi:nodetypes="ccccc" /><path
         style="opacity:1;fill:#ffffff;fill-opacity:1;stroke:none;stroke-opacity:1"
         d="m 1141.9072,735.44464 18,-0.38571 0.1286,7.45714 c 21.2589,-17.36107 43.5192,-15.19372 60.9804,11.23118 l -0.064,81.46606 -15.7877,-0.17402 -0.3214,-70.79465 c -8.9378,-26.64492 -41.8807,-16.65007 -44.7429,3.21429 l 0.2572,67.88571 -18.1286,-0.12857 z"
         id="path9520"
         sodipodi:nodetypes="ccccccccccc" /><path
         style="opacity:1;fill:#ffffff;fill-opacity:1;stroke:none;stroke-opacity:1"
         d="m 1249.4274,695.9446 18.0918,0.0909 0.7273,46.72966 c 23.1105,-18.20161 50.4999,-11.54078 59.9832,11.47405 0.8887,34.65432 -0.4017,50.12 0.065,80.93975 l -15.8645,-0.0909 -0.4091,-76.18571 c -8.374,-13.73188 -31.0604,-12.92276 -44.3205,-0.59093 l 0.2274,76.73119 -18.7283,-0.0909 z"
         id="path10248"
         sodipodi:nodetypes="ccccccccccc" /><path
         style="opacity:1;fill:#181d2e;fill-opacity:1;stroke:none;stroke-opacity:1"
         d="m 651.92487,391.36851 c -11.19441,-0.35953 -24.57928,0.43143 -39.13953,11.97488 -14.56024,11.54345 -30.29476,33.83912 -33.94932,56.86709 -3.65457,23.02797 4.76994,46.78628 13.95271,61.21102 9.18277,14.42473 19.12248,19.5158 27.66843,23.06132 8.54596,3.54551 15.6977,5.54557 23.15265,6.90917 7.45494,1.3636 15.21261,2.09088 25.06146,-0.48521 9.84884,-2.57609 21.78837,-8.45495 29.87956,-14.94001 8.09119,-6.48505 12.33374,-13.57618 17.15221,-23.27369 4.81847,-9.6975 10.21258,-22.00091 10.90977,-37.5773 0.69719,-15.5764 -3.30293,-34.42547 -11.66668,-48.36584 -8.36374,-13.94038 -21.09141,-22.97096 -31.95734,-28.24155 -10.86593,-5.2706 -19.8695,-6.78035 -31.06392,-7.13988 z"
         id="path11246"
         inkscape:path-effect="#path-effect11248"
         inkscape:original-d="m 654.11439,390.21807 c -13.38387,0.79197 -26.76874,1.58293 -40.15462,2.37289 -15.73353,22.29668 -31.46805,44.59235 -47.20358,66.88703 8.42584,23.76026 16.85034,47.51857 25.27401,71.27636 9.9411,5.09227 19.88081,10.18334 29.81971,15.27351 7.15302,2.00114 14.30476,4.0012 21.45564,6.0003 7.75912,0.72832 15.51679,1.45561 23.27391,2.18193 11.94124,-5.8782 23.88077,-11.75706 35.82001,-17.63726 4.24372,-7.09041 8.48628,-14.18154 12.72792,-21.27381 5.39533,-12.30291 10.78943,-24.60632 16.18265,-36.91098 -3.99929,-18.84882 -7.99941,-37.69789 -12.00061,-56.54834 -12.72718,-9.02994 -25.45485,-18.06052 -38.18377,-27.09229 -9.00294,-1.50881 -18.00651,-3.01856 -27.01127,-4.52934 z"
         sodipodi:nodetypes="ccccccccccccc" /><path
         style="opacity:1;fill:#181d2e;fill-opacity:1;stroke:none;stroke-opacity:1"
         d="m 1121.767,392.82313 c -11.1944,-0.35953 -24.5793,0.43143 -39.1395,11.97488 -14.5603,11.54344 -30.2948,33.83909 -33.9493,56.86708 -3.6546,23.02799 4.7699,46.78629 13.9527,61.21103 9.1828,14.42474 19.1225,19.5158 27.6684,23.06132 8.546,3.54551 15.6977,5.54556 23.1526,6.90916 7.455,1.3636 15.2127,2.09089 25.0615,-0.48521 9.8489,-2.57611 21.7886,-8.45505 29.8796,-14.93998 8.0911,-6.48493 12.3337,-13.5762 17.1521,-23.27358 4.8184,-9.69738 10.2127,-22.00104 10.9099,-37.57725 0.6972,-15.57621 -3.303,-34.42565 -11.6666,-48.36593 -8.3636,-13.94029 -21.0915,-22.97105 -31.9574,-28.24163 -10.8658,-5.27058 -19.8696,-6.78036 -31.064,-7.13989 z"
         id="path11250"
         sodipodi:nodetypes="sscccccssssss"
         inkscape:original-d="m 1123.9565,391.67269 c -13.3839,0.79196 -26.7687,1.58293 -40.1546,2.37289 -15.7335,22.29668 -31.468,44.59235 -47.2036,66.88703 8.4259,23.76026 16.8504,47.51857 25.2741,71.27636 9.9411,5.09227 19.8808,10.18334 29.8197,15.27351 7.153,2.00114 14.3047,4.0012 21.4556,6.0003 7.7591,0.72832 15.5168,1.45561 23.2739,2.18193 11.9413,-5.8782 23.881,-11.75717 35.82,-17.63726 4.2436,-7.09027 8.4863,-14.18154 12.7279,-21.27381 5.3952,-12.30266 10.7895,-24.60632 16.1827,-36.91098 -3.9992,-18.84845 -7.9994,-37.69789 -12.0006,-56.54834 -12.7269,-9.02976 -25.4549,-18.06053 -38.1838,-27.09229 -9.0028,-1.50878 -18.0065,-3.01856 -27.0113,-4.52934 z"
         inkscape:path-effect="#path-effect11254"
         sodipodi:insensitive="true" /><path
         style="opacity:1;fill:#ffffff;fill-opacity:1;stroke:none;stroke-opacity:1"
         d="m 1359.3421,737.12852 -0.091,17.36452 c 0.3737,-2.01344 41.1048,-17.45423 54.6391,3.45472 l -0.091,12.00061 -24.4558,0.0909 c -27.1401,4.96405 -38.5023,18.1095 -39.4346,32.61492 -0.5701,8.87051 2.4368,18.87494 10.6462,27.99133 7.9525,8.83109 28.5293,7.08516 31.5158,7.03356 1.2926,-0.37018 5.5777,1.22961 23.6376,-12.36427 v 10.18234 l 14.3644,-0.18183 -0.3637,-80.36773 c -5.489,-30.81096 -51.1863,-23.9894 -70.3672,-17.81909 z"
         id="path11256"
         sodipodi:nodetypes="cccccsscccccc" /><path
         style="opacity:1;fill:#181d2e;fill-opacity:1;stroke:none;stroke-opacity:1"
         d="m 1415.4429,782.74286 -0.3858,28.41428 c -14.7881,15.63134 -36.0087,8.49997 -38.9571,7.52144 -4.4162,-1.43416 -15.0009,-18.92846 1.2857,-28.73572 7.1748,-4.87991 17.274,-8.44386 38.0572,-7.2 z"
         id="path11258"
         sodipodi:nodetypes="ccccc"
         inkscape:label="path11258" /><path
         style="opacity:1;fill:#ffffff;fill-opacity:1;stroke:none;stroke-width:1.18015;stroke-opacity:1"
         d="m 1457.5952,695.05401 18.3666,0.0638 -0.09,141.02897 h -18.3217 z"
         id="path11260"
         sodipodi:nodetypes="ccccc" /><path
         style="display:inline;opacity:1;fill:#181d2e;fill-opacity:1;stroke:none;stroke-width:0.817549;stroke-opacity:1"
         d="m 891.52259,393.48934 c -9.17144,-0.40123 -20.51888,0.50272 -32.41128,10.07081 -11.89241,9.56809 -24.32885,27.79998 -27.2517,46.56658 -2.92284,18.76659 3.66734,38.06607 10.96094,49.86177 7.29359,11.79571 15.28919,16.08734 22.21003,19.05092 6.92084,2.96357 12.76635,4.59909 18.98824,5.37125 6.2219,0.77216 12.8199,0.6812 21.12732,-1.72541 8.30743,-2.40661 18.3231,-7.12809 24.80793,-12.08828 6.48482,-4.96019 9.43825,-10.15891 13.11955,-17.78893 3.68129,-7.63003 8.09024,-17.69097 8.48868,-30.47122 0.39844,-12.78025 -3.21376,-28.27871 -10.02863,-39.57155 -6.81487,-11.29284 -16.83165,-18.37706 -25.3383,-22.77292 -8.50666,-4.39585 -15.50134,-6.1018 -24.67278,-6.50302 z"
         id="path11268"
         inkscape:path-effect="#path-effect11272"
         inkscape:original-d="m 893.69775,392.18423 c -11.34651,0.90495 -22.69395,1.8089 -34.04221,2.71183 -12.43549,18.23296 -24.87193,36.46486 -37.30956,54.69602 6.59138,19.30104 13.18157,38.60052 19.77096,57.89963 7.99701,4.29285 15.99261,8.58449 23.98775,12.87542 5.84654,1.63653 11.69208,3.27194 17.53696,4.90668 6.59908,-0.09 13.19708,-0.18093 19.79459,-0.2729 10.0179,-4.72106 20.03357,-9.44254 30.04928,-14.16551 2.95456,-5.19794 5.90799,-10.39665 8.86043,-15.59639 4.40998,-10.06054 8.81892,-20.12149 13.22711,-30.18347 -3.61159,-15.49913 -7.22379,-30.99759 -10.8374,-46.49882 -10.017,-7.08409 -20.03377,-14.16831 -30.05279,-21.2544 -6.99433,-1.7051 -13.98902,-3.41104 -20.98512,-5.11809 z"
         sodipodi:nodetypes="ccccccccccccc" /></g><path
       style="opacity:1;fill:#181d2e;fill-opacity:1;stroke:none;stroke-width:1.04367;stroke-opacity:1"
       id="path18601"
       sodipodi:type="arc"
       sodipodi:cx="1122.8923"
       sodipodi:cy="473.39999"
       sodipodi:rx="74.777962"
       sodipodi:ry="81.514282"
       sodipodi:start="0"
       sodipodi:end="6.277393"
       sodipodi:arc-type="arc"
       d="m 1197.6703,473.39999 a 74.777962,81.514282 0 0 1 -74.6697,81.5142 74.777962,81.514282 0 0 1 -74.8859,-81.27812 74.777962,81.514282 0 0 1 74.4528,-81.74959 74.777962,81.514282 0 0 1 75.1015,81.04136"
       sodipodi:open="true" /><path
       style="opacity:1;fill:#181d2e;fill-opacity:1;stroke:none;stroke-width:1.04779;stroke-opacity:1"
       id="path18603"
       sodipodi:type="arc"
       sodipodi:cx="652.1015"
       sodipodi:cy="471.66431"
       sodipodi:rx="75.07283"
       sodipodi:ry="81.835709"
       sodipodi:start="0"
       sodipodi:end="6.277393"
       sodipodi:arc-type="arc"
       d="m 727.17433,471.66431 a 75.07283,81.835709 0 0 1 -74.96412,81.83562 75.07283,81.835709 0 0 1 -75.18122,-81.59861 75.07283,81.835709 0 0 1 74.74638,-82.07195 75.07283,81.835709 0 0 1 75.3977,81.36092"
       sodipodi:open="true" /><path
       style="opacity:1;fill:#181d2e;fill-opacity:1;stroke:none;stroke-width:0.874651;stroke-opacity:1"
       id="path18605"
       sodipodi:type="arc"
       sodipodi:cx="892.05481"
       sodipodi:cy="460.46222"
       sodipodi:rx="63.793987"
       sodipodi:ry="67.106735"
       sodipodi:start="0"
       sodipodi:end="6.277393"
       sodipodi:arc-type="arc"
       d="m 955.8488,460.46222 a 63.793987,67.106735 0 0 1 -63.70161,67.10666 63.793987,67.106735 0 0 1 -63.8861,-66.91231 63.793987,67.106735 0 0 1 63.51658,-67.30045 63.793987,67.106735 0 0 1 64.07006,66.7174"
       sodipodi:open="true" /></g></svg>
